<?xml version="1.0" encoding="UTF-8" standalone="no"?>
<svg width="20px" height="20px" viewBox="0 0 54 56" version="1.1" xmlns="http://www.w3.org/2000/svg" xmlns:xlink="http://www.w3.org/1999/xlink">
    <!-- Generator: Sketch 41.2 (35397) - http://www.bohemiancoding.com/sketch -->
    <title>Favorite</title>
    <desc>Created with Sketch.</desc>
    <defs></defs>
    <g id="Page-1" stroke="currentColor" stroke-width="2" fill="none" fill-rule="evenodd">
        <g id="Favorite" fill="currentColor">
            <path d="M0.7,55.6 L0.7,0.7 L53.7,0.7 L53.7,55.6 L27,50.6 L0.7,55.6 Z M27,47.6 L50.7,52 L50.7,3.7 L3.7,3.7 L3.7,52 L27,47.6 Z" id="Shape"></path>
            <path d="M36.4,40 L27.2,37.3 L18,39.9 L17.7,30.3 L12.3,22.3 L21.3,19 L27.2,11.5 L33.1,19.1 L42.1,22.4 L36.7,30.3 L36.4,40 Z M27.2,34.2 L33.5,36 L33.7,29.4 L37.4,23.9 L31.2,21.6 L27.1,16.4 L23,21.6 L16.8,23.8 L20.5,29.3 L20.7,35.9 L27.2,34.2 Z" id="Shape"></path>
        </g>
    </g>
</svg>