<svg width="20" height="20" viewBox="0 0 20 20" fill="none" xmlns="http://www.w3.org/2000/svg">
<path fill-rule="evenodd" clip-rule="evenodd" d="M0 10C0 4.47715 4.47715 0 10 0C15.5204 0.00597071 19.994 4.47963 20 10C20 15.5228 15.5228 20 10 20C4.47715 20 0 15.5228 0 10ZM2.29167 10C2.29167 14.2572 5.74281 17.7083 10 17.7083C14.2553 17.7037 17.7037 14.2553 17.7083 10C17.7083 5.74281 14.2572 2.29167 10 2.29167C5.74281 2.29167 2.29167 5.74281 2.29167 10Z" fill="currentColor"/>
<path fill-rule="evenodd" clip-rule="evenodd" d="M3.54199 10C3.54199 6.43318 6.43349 3.54169 10.0003 3.54169C13.5655 3.54582 16.4545 6.43489 16.4587 10C16.4587 13.5669 13.5672 16.4584 10.0003 16.4584C6.43349 16.4584 3.54199 13.5669 3.54199 10ZM13.3337 11.25C13.5638 11.25 13.7503 11.0635 13.7503 10.8334V9.16669C13.7503 8.93657 13.5638 8.75002 13.3337 8.75002H11.667C11.4369 8.75002 11.2503 8.56347 11.2503 8.33335V6.66669C11.2503 6.43657 11.0638 6.25002 10.8337 6.25002H9.16699C8.93687 6.25002 8.75033 6.43657 8.75033 6.66669V8.33335C8.75033 8.56347 8.56378 8.75002 8.33366 8.75002H6.66699C6.43687 8.75002 6.25033 8.93657 6.25033 9.16669V10.8334C6.25033 11.0635 6.43687 11.25 6.66699 11.25H8.33366C8.56378 11.25 8.75033 11.4366 8.75033 11.6667V13.3334C8.75033 13.5635 8.93687 13.75 9.16699 13.75H10.8337C11.0638 13.75 11.2503 13.5635 11.2503 13.3334V11.6667C11.2503 11.4366 11.4369 11.25 11.667 11.25H13.3337Z" fill="currentColor"/>
</svg>
