<svg width="20" height="20" viewBox="0 0 20 20" fill="none" xmlns="http://www.w3.org/2000/svg">
<path fill-rule="evenodd" clip-rule="evenodd" d="M19.7557 9.41083L10.589 0.244164C10.2636 -0.0811541 9.7361 -0.0811541 9.41068 0.244164L0.244013 9.41083C0.00575645 9.64916 -0.0655052 10.0075 0.0634481 10.3189C0.192401 10.6302 0.496183 10.8333 0.83318 10.8333H1.87485C1.98991 10.8333 2.08318 10.9266 2.08318 11.0417V19.1667C2.08318 19.6269 2.45628 20 2.91651 20H7.70818C7.82324 20 7.91651 19.9067 7.91651 19.7917V15.8333C7.91651 14.6827 8.84925 13.75 9.99985 13.75C11.1504 13.75 12.0832 14.6827 12.0832 15.8333V19.7917C12.0832 19.9067 12.1765 20 12.2915 20H17.0832C17.5434 20 17.9165 19.6269 17.9165 19.1667V11.0417C17.9165 10.9266 18.0098 10.8333 18.1248 10.8333H19.1665C19.5035 10.8333 19.8073 10.6302 19.9362 10.3189C20.0652 10.0075 19.9939 9.64916 19.7557 9.41083Z" fill="currentColor"/>
</svg>
