<svg width="20" height="20" viewBox="0 0 20 20" fill="none" xmlns="http://www.w3.org/2000/svg">
<path fill-rule="evenodd" clip-rule="evenodd" d="M19.5123 17.164L15.6439 13.2934C18.0842 9.63838 17.3555 4.72725 13.9592 1.93918C10.5628 -0.848885 5.6066 -0.604487 2.50071 2.50421C-0.605194 5.61291 -0.847705 10.5719 1.94003 13.9692C4.72777 17.3664 9.63647 18.0938 13.2886 15.6508L17.1571 19.5205C17.8122 20.1598 18.8573 20.1598 19.5123 19.5205C20.1626 18.8697 20.1626 17.8148 19.5123 17.164ZM8.54906 2.50996C11.8837 2.50996 14.587 5.21473 14.587 8.55123C14.587 11.8877 11.8837 14.5925 8.54906 14.5925C5.21438 14.5925 2.5111 11.8877 2.5111 8.55123C2.51477 5.21625 5.21591 2.51364 8.54906 2.50996Z" fill="currentColor"/>
</svg>
